<?xml version="1.0" encoding="utf-8"?>
<!-- Generator: Adobe Illustrator 26.0.3, SVG Export Plug-In . SVG Version: 6.00 Build 0)  -->
<svg version="1.1" id="Layer_1" xmlns="http://www.w3.org/2000/svg" xmlns:xlink="http://www.w3.org/1999/xlink" x="0px" y="0px"
	 viewBox="0 0 500 500" style="enable-background:new 0 0 500 500;" xml:space="preserve">
<g>
	<path style="fill:#1C2A39;" d="M150.367,283.312v69.743h-19.727v-27.201h-26.901v27.201H84.01v-69.743h19.727v26.202h26.901
		v-26.202H150.367z"/>
	<path style="fill:#1C2A39;" d="M224.395,334.524h-10.761v18.532h-19.727v-69.743h31.883c6.31,0,11.789,1.046,16.44,3.138
		c4.649,2.092,8.235,5.081,10.76,8.967c2.524,3.886,3.786,8.453,3.786,13.699c0,5.049-1.18,9.449-3.537,13.202
		c-2.359,3.752-5.728,6.692-10.113,8.817l15.045,21.92h-21.122L224.395,334.524z M233.76,301.544
		c-2.059-1.794-5.116-2.69-9.166-2.69h-10.96v20.424h10.96c4.05,0,7.107-0.879,9.166-2.64c2.058-1.759,3.089-4.267,3.089-7.522
		C236.849,305.864,235.818,303.338,233.76,301.544z"/>
	<path style="fill:#1C2A39;" d="M297.227,283.312h19.727v69.743h-19.727V283.312z"/>
	<path style="fill:#1C2A39;" d="M368.664,352.358c-5.315-1.395-9.632-3.253-12.953-5.58l6.477-14.546
		c3.121,2.06,6.74,3.72,10.859,4.981c4.118,1.263,8.17,1.894,12.156,1.894c7.571,0,11.357-1.894,11.357-5.68
		c0-1.992-1.08-3.47-3.238-4.433c-2.16-0.963-5.629-1.975-10.411-3.04c-5.248-1.127-9.632-2.341-13.153-3.636
		c-3.52-1.296-6.543-3.371-9.065-6.227c-2.525-2.855-3.786-6.709-3.786-11.558c0-4.25,1.161-8.085,3.487-11.508
		c2.324-3.421,5.794-6.127,10.411-8.121c4.617-1.992,10.279-2.989,16.988-2.989c4.583,0,9.099,0.516,13.551,1.545
		c4.45,1.031,8.37,2.541,11.756,4.533l-6.078,14.647c-6.642-3.588-13.085-5.381-19.329-5.381c-3.92,0-6.775,0.582-8.568,1.743
		c-1.794,1.163-2.691,2.674-2.691,4.533c0,1.862,1.063,3.256,3.189,4.186c2.126,0.931,5.545,1.892,10.262,2.889
		c5.315,1.13,9.715,2.341,13.202,3.637c3.487,1.295,6.51,3.355,9.067,6.176c2.556,2.825,3.835,6.66,3.835,11.508
		c0,4.186-1.163,7.972-3.487,11.359c-2.326,3.388-5.814,6.095-10.462,8.121c-4.649,2.024-10.296,3.038-16.937,3.038
		C379.458,354.45,373.977,353.753,368.664,352.358z"/>
</g>
<g>
	<path style="fill:#3DA2C3;" d="M355.101,240.176h37.718c-7.908-31.451-36.37-54.736-70.276-54.736
		c-17.614,0-33.748,6.298-46.307,16.747c-0.14,0.115-0.285,0.219-0.424,0.336c-0.081,0.068-0.157,0.141-0.237,0.21
		c-0.118,0.101-0.241,0.195-0.359,0.296c0.014-0.006,0.028-0.011,0.042-0.017c-6.493,5.598-11.992,12.322-16.171,19.879h39.602
		c0.061-0.084,0.122-0.167,0.183-0.25c11.724-15.912,35.8-15.775,47.471,0.176C350.154,228.025,353.137,233.875,355.101,240.176z"/>
	
		<ellipse transform="matrix(0.707 -0.7072 0.7072 0.707 -14.9382 283.6319)" style="fill:#3DA2C3;" cx="334.807" cy="159.843" rx="14.273" ry="14.31"/>
</g>
<g>
	<path style="fill:#F9DA62;" d="M284.586,253.032h37.718c-7.908-31.451-36.37-54.736-70.276-54.736
		c-17.614,0-33.748,6.298-46.307,16.747c-0.14,0.115-0.285,0.219-0.424,0.336c-0.081,0.068-0.157,0.141-0.237,0.21
		c-0.118,0.101-0.241,0.195-0.359,0.296c0.014-0.006,0.028-0.011,0.042-0.017c-6.493,5.598-11.992,12.322-16.171,19.879h39.602
		c0.061-0.084,0.122-0.167,0.183-0.25c11.724-15.912,35.8-15.775,47.471,0.176C279.639,240.881,282.623,246.731,284.586,253.032z"/>
	
		<ellipse transform="matrix(0.707 -0.7072 0.7072 0.707 -44.6939 237.5278)" style="fill:#F9DA62;" cx="264.293" cy="172.699" rx="14.273" ry="14.31"/>
</g>
<g>
	<path style="fill:#EFA656;" d="M214.072,265.888h37.718c-7.908-31.451-36.37-54.736-70.276-54.736
		c-17.614,0-33.748,6.298-46.307,16.747c-0.14,0.115-0.285,0.219-0.424,0.336c-0.081,0.068-0.157,0.141-0.237,0.21
		c-0.118,0.101-0.241,0.195-0.359,0.296c0.014-0.006,0.028-0.011,0.042-0.017c-6.493,5.598-11.992,12.322-16.171,19.879h39.602
		c0.061-0.084,0.122-0.167,0.183-0.25c11.724-15.912,35.8-15.775,47.471,0.176C209.125,253.737,212.108,259.587,214.072,265.888z"/>
	
		<ellipse transform="matrix(0.707 -0.7072 0.7072 0.707 -74.4496 191.4238)" style="fill:#EFA656;" cx="193.778" cy="185.555" rx="14.273" ry="14.31"/>
</g>
</svg>
