<?xml version="1.0" encoding="utf-8"?>
<!-- Generator: Adobe Illustrator 26.0.3, SVG Export Plug-In . SVG Version: 6.00 Build 0)  -->
<svg version="1.1" id="Layer_1" xmlns="http://www.w3.org/2000/svg" xmlns:xlink="http://www.w3.org/1999/xlink" x="0px" y="0px"
	 viewBox="0 0 332 208.9" style="enable-background:new 0 0 332 208.9;" xml:space="preserve">
<g>
	<g>
		<path style="fill:#FFFFFF;" d="M66.4,137.7v69.7H46.6v-27.2H19.7v27.2H0v-69.7h19.7v26.2h26.9v-26.2H66.4z"/>
		<path style="fill:#FFFFFF;" d="M140.4,188.9h-10.8v18.5h-19.7v-69.7h31.9c6.3,0,11.8,1,16.4,3.1c4.6,2.1,8.2,5.1,10.8,9
			c2.5,3.9,3.8,8.5,3.8,13.7c0,5-1.2,9.4-3.5,13.2c-2.4,3.8-5.7,6.7-10.1,8.8l15,21.9H153L140.4,188.9z M149.8,156
			c-2.1-1.8-5.1-2.7-9.2-2.7h-11v20.4h11c4.1,0,7.1-0.9,9.2-2.6c2.1-1.8,3.1-4.3,3.1-7.5C152.8,160.3,151.8,157.8,149.8,156z"/>
		<path style="fill:#FFFFFF;" d="M213.2,137.7h19.7v69.7h-19.7V137.7z"/>
		<path style="fill:#FFFFFF;" d="M284.7,206.8c-5.3-1.4-9.6-3.3-13-5.6l6.5-14.5c3.1,2.1,6.7,3.7,10.9,5c4.1,1.3,8.2,1.9,12.2,1.9
			c7.6,0,11.4-1.9,11.4-5.7c0-2-1.1-3.5-3.2-4.4c-2.2-1-5.6-2-10.4-3c-5.2-1.1-9.6-2.3-13.2-3.6c-3.5-1.3-6.5-3.4-9.1-6.2
			c-2.5-2.9-3.8-6.7-3.8-11.6c0-4.2,1.2-8.1,3.5-11.5c2.3-3.4,5.8-6.1,10.4-8.1c4.6-2,10.3-3,17-3c4.6,0,9.1,0.5,13.6,1.5
			c4.5,1,8.4,2.5,11.8,4.5l-6.1,14.6c-6.6-3.6-13.1-5.4-19.3-5.4c-3.9,0-6.8,0.6-8.6,1.7c-1.8,1.2-2.7,2.7-2.7,4.5
			c0,1.9,1.1,3.3,3.2,4.2c2.1,0.9,5.5,1.9,10.3,2.9c5.3,1.1,9.7,2.3,13.2,3.6c3.5,1.3,6.5,3.4,9.1,6.2c2.6,2.8,3.8,6.7,3.8,11.5
			c0,4.2-1.2,8-3.5,11.4c-2.3,3.4-5.8,6.1-10.5,8.1c-4.6,2-10.3,3-16.9,3C295.4,208.9,290,208.2,284.7,206.8z"/>
	</g>
	<g>
		<path style="fill:#3DA2C3;" d="M271.1,94.6h37.7c-7.9-31.5-36.4-54.7-70.3-54.7c-17.6,0-33.7,6.3-46.3,16.7
			c-0.1,0.1-0.3,0.2-0.4,0.3c-0.1,0.1-0.2,0.1-0.2,0.2c-0.1,0.1-0.2,0.2-0.4,0.3c0,0,0,0,0,0c-6.5,5.6-12,12.3-16.2,19.9h39.6
			c0.1-0.1,0.1-0.2,0.2-0.2c11.7-15.9,35.8-15.8,47.5,0.2C266.1,82.5,269.1,88.3,271.1,94.6z"/>
		
			<ellipse transform="matrix(0.707 -0.7072 0.7072 0.707 63.3761 181.5557)" style="fill:#3DA2C3;" cx="250.8" cy="14.3" rx="14.3" ry="14.3"/>
	</g>
	<g>
		<path style="fill:#F9DA62;" d="M200.6,107.5h37.7C230.4,76,201.9,52.7,168,52.7c-17.6,0-33.7,6.3-46.3,16.7
			c-0.1,0.1-0.3,0.2-0.4,0.3c-0.1,0.1-0.2,0.1-0.2,0.2c-0.1,0.1-0.2,0.2-0.4,0.3c0,0,0,0,0,0c-6.5,5.6-12,12.3-16.2,19.9h39.6
			c0.1-0.1,0.1-0.2,0.2-0.2c11.7-15.9,35.8-15.8,47.5,0.2C195.6,95.3,198.6,101.2,200.6,107.5z"/>
		
			<ellipse transform="matrix(0.707 -0.7072 0.7072 0.707 33.6312 135.4586)" style="fill:#F9DA62;" cx="180.3" cy="27.1" rx="14.3" ry="14.3"/>
	</g>
	<g>
		<path style="fill:#EFA656;" d="M130.1,120.3h37.7c-7.9-31.5-36.4-54.7-70.3-54.7c-17.6,0-33.7,6.3-46.3,16.7
			c-0.1,0.1-0.3,0.2-0.4,0.3c-0.1,0.1-0.2,0.1-0.2,0.2c-0.1,0.1-0.2,0.2-0.4,0.3c0,0,0,0,0,0c-6.5,5.6-12,12.3-16.2,19.9h39.6
			c0.1-0.1,0.1-0.2,0.2-0.2c11.7-15.9,35.8-15.8,47.5,0.2C125.1,108.2,128.1,114,130.1,120.3z"/>
		
			<ellipse transform="matrix(0.707 -0.7072 0.7072 0.707 3.8743 89.3462)" style="fill:#EFA656;" cx="109.8" cy="40" rx="14.3" ry="14.3"/>
	</g>
</g>
</svg>
